<mxfile host="app.diagrams.net" modified="2020-04-13T19:57:06.252Z" agent="5.0 (X11)" etag="n0r4xTa5iS5nY0SWje0A" version="12.9.11" type="github">
  <diagram id="CWHM_CnDwBREEAxXHf8a" name="Page-1">
    <mxGraphModel dx="841" dy="959" grid="1" gridSize="10" guides="1" tooltips="1" connect="1" arrows="1" fold="1" page="1" pageScale="1" pageWidth="1169" pageHeight="827" math="0" shadow="0">
      <root>
        <mxCell id="0" />
        <mxCell id="1" parent="0" />
        <mxCell id="K_3RQfGE3v5Q4Vc9bMYA-40" value="" style="rounded=0;whiteSpace=wrap;html=1;strokeColor=#3399FF;" parent="1" vertex="1">
          <mxGeometry x="250" y="30" width="380" height="460" as="geometry" />
        </mxCell>
        <mxCell id="K_3RQfGE3v5Q4Vc9bMYA-6" value="s3://a/2020/04/14/4/4.p" style="strokeWidth=2;html=1;shape=mxgraph.flowchart.database;whiteSpace=wrap;" parent="1" vertex="1">
          <mxGeometry x="60" y="215" width="130" height="50" as="geometry" />
        </mxCell>
        <mxCell id="K_3RQfGE3v5Q4Vc9bMYA-8" value="&lt;table style=&quot;width: 100% ; height: 100% ; border-collapse: collapse&quot; width=&quot;100%&quot; cellpadding=&quot;4&quot; border=&quot;1&quot;&gt;&lt;tbody&gt;&lt;tr style=&quot;background-color: #a7c942 ; color: #ffffff ; border: 1px solid #98bf21&quot;&gt;&lt;th align=&quot;left&quot;&gt;YEAR&lt;br&gt;&lt;/th&gt;&lt;th align=&quot;left&quot;&gt;MONTH&lt;br&gt;&lt;/th&gt;&lt;th align=&quot;left&quot;&gt;DAY&lt;/th&gt;&lt;td&gt;&lt;b&gt;VERSION&lt;/b&gt;&lt;br&gt;&lt;/td&gt;&lt;td&gt;&lt;b&gt;FILE&lt;/b&gt;&lt;br&gt;&lt;/td&gt;&lt;/tr&gt;&lt;tr style=&quot;border: 1px solid #98bf21&quot;&gt;&lt;td&gt;2020&lt;br&gt;&lt;/td&gt;&lt;td&gt;04&lt;br&gt;&lt;/td&gt;&lt;td&gt;14&lt;br&gt;&lt;/td&gt;&lt;td&gt;1&lt;/td&gt;&lt;td&gt;s3://a/2020/04/14/1/f.p&lt;/td&gt;&lt;/tr&gt;&lt;tr style=&quot;background-color: #eaf2d3 ; border: 1px solid #98bf21&quot;&gt;&lt;td&gt;2020&lt;br&gt;&lt;/td&gt;&lt;td&gt;04&lt;br&gt;&lt;/td&gt;&lt;td&gt;14&lt;br&gt;&lt;/td&gt;&lt;td&gt;2&lt;br&gt;&lt;/td&gt;&lt;td&gt;s3://a/2020/04/14/2/f.p&lt;/td&gt;&lt;/tr&gt;&lt;tr style=&quot;border: 1px solid #98bf21&quot;&gt;&lt;td&gt;2020&lt;/td&gt;&lt;td&gt;04&lt;br&gt;&lt;/td&gt;&lt;td&gt;14&lt;/td&gt;&lt;td&gt;3&lt;br&gt;&lt;/td&gt;&lt;td&gt;s3://a/2020/04/14/3/f.p&lt;/td&gt;&lt;/tr&gt;&lt;tr style=&quot;background-color: #eaf2d3 ; border: 1px solid #98bf21&quot;&gt;&lt;td&gt;2020&lt;br&gt;&lt;/td&gt;&lt;td&gt;04&lt;/td&gt;&lt;td&gt;14&lt;br&gt;&lt;/td&gt;&lt;td&gt;4&lt;br&gt;&lt;/td&gt;&lt;td&gt;s3://a/2020/04/14/4/f.p&lt;/td&gt;&lt;/tr&gt;&lt;/tbody&gt;&lt;/table&gt;" style="text;html=1;strokeColor=#c0c0c0;fillColor=#ffffff;overflow=fill;rounded=0;movable=1;resizable=1;rotatable=1;deletable=1;editable=1;connectable=1;" parent="1" vertex="1">
          <mxGeometry x="280" y="95" width="320" height="140" as="geometry" />
        </mxCell>
        <mxCell id="K_3RQfGE3v5Q4Vc9bMYA-12" value="s3://a/2020/04/14/3/f.p" style="strokeWidth=2;html=1;shape=mxgraph.flowchart.database;whiteSpace=wrap;" parent="1" vertex="1">
          <mxGeometry x="60" y="170" width="130" height="50" as="geometry" />
        </mxCell>
        <mxCell id="K_3RQfGE3v5Q4Vc9bMYA-13" value="s3://a/2020/04/14/2/f.p" style="strokeWidth=2;html=1;shape=mxgraph.flowchart.database;whiteSpace=wrap;" parent="1" vertex="1">
          <mxGeometry x="60" y="125" width="130" height="50" as="geometry" />
        </mxCell>
        <mxCell id="K_3RQfGE3v5Q4Vc9bMYA-16" style="edgeStyle=orthogonalEdgeStyle;orthogonalLoop=1;jettySize=auto;html=1;exitX=1;exitY=0.5;exitDx=0;exitDy=0;exitPerimeter=0;entryX=0;entryY=0.25;entryDx=0;entryDy=0;curved=1;" parent="1" source="K_3RQfGE3v5Q4Vc9bMYA-14" target="K_3RQfGE3v5Q4Vc9bMYA-8" edge="1">
          <mxGeometry relative="1" as="geometry" />
        </mxCell>
        <mxCell id="K_3RQfGE3v5Q4Vc9bMYA-14" value="s3://a/2020/04/14/1/f.p" style="strokeWidth=2;html=1;shape=mxgraph.flowchart.database;whiteSpace=wrap;" parent="1" vertex="1">
          <mxGeometry x="60" y="80" width="130" height="50" as="geometry" />
        </mxCell>
        <mxCell id="K_3RQfGE3v5Q4Vc9bMYA-17" style="edgeStyle=orthogonalEdgeStyle;orthogonalLoop=1;jettySize=auto;html=1;exitX=1;exitY=0.5;exitDx=0;exitDy=0;exitPerimeter=0;entryX=0;entryY=0.5;entryDx=0;entryDy=0;curved=1;" parent="1" source="K_3RQfGE3v5Q4Vc9bMYA-13" target="K_3RQfGE3v5Q4Vc9bMYA-8" edge="1">
          <mxGeometry relative="1" as="geometry">
            <mxPoint x="220" y="123" as="sourcePoint" />
            <mxPoint x="290" y="140" as="targetPoint" />
          </mxGeometry>
        </mxCell>
        <mxCell id="K_3RQfGE3v5Q4Vc9bMYA-18" style="edgeStyle=orthogonalEdgeStyle;orthogonalLoop=1;jettySize=auto;html=1;exitX=1;exitY=0.5;exitDx=0;exitDy=0;exitPerimeter=0;entryX=0;entryY=0.7;entryDx=0;entryDy=0;curved=1;entryPerimeter=0;" parent="1" source="K_3RQfGE3v5Q4Vc9bMYA-12" target="K_3RQfGE3v5Q4Vc9bMYA-8" edge="1">
          <mxGeometry relative="1" as="geometry">
            <mxPoint x="230" y="133" as="sourcePoint" />
            <mxPoint x="300" y="150" as="targetPoint" />
          </mxGeometry>
        </mxCell>
        <mxCell id="K_3RQfGE3v5Q4Vc9bMYA-19" style="edgeStyle=orthogonalEdgeStyle;orthogonalLoop=1;jettySize=auto;html=1;exitX=1;exitY=0.5;exitDx=0;exitDy=0;exitPerimeter=0;entryX=0;entryY=0.879;entryDx=0;entryDy=0;curved=1;entryPerimeter=0;" parent="1" source="K_3RQfGE3v5Q4Vc9bMYA-6" target="K_3RQfGE3v5Q4Vc9bMYA-8" edge="1">
          <mxGeometry relative="1" as="geometry">
            <mxPoint x="240" y="143" as="sourcePoint" />
            <mxPoint x="310" y="160" as="targetPoint" />
          </mxGeometry>
        </mxCell>
        <mxCell id="K_3RQfGE3v5Q4Vc9bMYA-20" value="" style="shape=curlyBracket;whiteSpace=wrap;html=1;rounded=1;rotation=-90;" parent="1" vertex="1">
          <mxGeometry x="370" y="153" width="20" height="200" as="geometry" />
        </mxCell>
        <mxCell id="K_3RQfGE3v5Q4Vc9bMYA-21" value="Partition Key Columns" style="text;html=1;strokeColor=none;fillColor=none;align=center;verticalAlign=middle;whiteSpace=wrap;rounded=0;" parent="1" vertex="1">
          <mxGeometry x="319.5" y="265" width="121" height="20" as="geometry" />
        </mxCell>
        <mxCell id="K_3RQfGE3v5Q4Vc9bMYA-24" value="Dataset A in Staging Area" style="text;html=1;strokeColor=none;fillColor=none;align=center;verticalAlign=middle;whiteSpace=wrap;rounded=0;" parent="1" vertex="1">
          <mxGeometry x="60" y="265" width="130" height="20" as="geometry" />
        </mxCell>
        <mxCell id="K_3RQfGE3v5Q4Vc9bMYA-27" value="&lt;table style=&quot;width: 100% ; height: 100% ; border-collapse: collapse&quot; width=&quot;100%&quot; cellpadding=&quot;4&quot; border=&quot;1&quot;&gt;&lt;tbody&gt;&lt;tr style=&quot;background-color: #a7c942 ; color: #ffffff ; border: 1px solid #98bf21&quot;&gt;&lt;th align=&quot;left&quot;&gt;YEAR&lt;br&gt;&lt;/th&gt;&lt;th align=&quot;left&quot;&gt;MONTH&lt;br&gt;&lt;/th&gt;&lt;th align=&quot;left&quot;&gt;DAY&lt;/th&gt;&lt;td&gt;&lt;b&gt;FILE&lt;/b&gt;&lt;br&gt;&lt;/td&gt;&lt;/tr&gt;&lt;tr style=&quot;background-color: #eaf2d3 ; border: 1px solid #98bf21&quot;&gt;&lt;td&gt;2020&lt;br&gt;&lt;/td&gt;&lt;td&gt;04&lt;br&gt;&lt;/td&gt;&lt;td&gt;14&lt;br&gt;&lt;/td&gt;&lt;td&gt;s3://a/2020/04/14/2/f.p&lt;/td&gt;&lt;/tr&gt;&lt;/tbody&gt;&lt;/table&gt;" style="text;html=1;strokeColor=#c0c0c0;fillColor=#ffffff;overflow=fill;rounded=0;movable=1;resizable=1;rotatable=1;deletable=1;editable=1;connectable=1;" parent="1" vertex="1">
          <mxGeometry x="280" y="355" width="320" height="55" as="geometry" />
        </mxCell>
        <mxCell id="K_3RQfGE3v5Q4Vc9bMYA-29" value="s3://a/2020/04/14/2/f.p" style="strokeWidth=1;html=1;shape=mxgraph.flowchart.database;whiteSpace=wrap;strokeColor=#FF0000;dashed=1;" parent="1" vertex="1">
          <mxGeometry x="60" y="385" width="130" height="50" as="geometry" />
        </mxCell>
        <mxCell id="K_3RQfGE3v5Q4Vc9bMYA-35" value="" style="shape=curlyBracket;whiteSpace=wrap;html=1;rounded=1;rotation=-90;" parent="1" vertex="1">
          <mxGeometry x="353" y="353" width="20" height="164" as="geometry" />
        </mxCell>
        <mxCell id="K_3RQfGE3v5Q4Vc9bMYA-36" value="Partition Key Columns" style="text;html=1;strokeColor=none;fillColor=none;align=center;verticalAlign=middle;whiteSpace=wrap;rounded=0;" parent="1" vertex="1">
          <mxGeometry x="302.5" y="450" width="121" height="20" as="geometry" />
        </mxCell>
        <mxCell id="K_3RQfGE3v5Q4Vc9bMYA-38" value="" style="endArrow=classic;html=1;exitX=0;exitY=0.5;exitDx=0;exitDy=0;exitPerimeter=0;entryX=0;entryY=0.5;entryDx=0;entryDy=0;entryPerimeter=0;strokeColor=#FF0000;dashed=1;" parent="1" source="K_3RQfGE3v5Q4Vc9bMYA-13" target="K_3RQfGE3v5Q4Vc9bMYA-29" edge="1">
          <mxGeometry width="50" height="50" relative="1" as="geometry">
            <mxPoint x="60" y="540" as="sourcePoint" />
            <mxPoint x="110" y="490" as="targetPoint" />
            <Array as="points">
              <mxPoint x="20" y="170" />
              <mxPoint x="20" y="370" />
            </Array>
          </mxGeometry>
        </mxCell>
        <mxCell id="K_3RQfGE3v5Q4Vc9bMYA-39" style="edgeStyle=orthogonalEdgeStyle;orthogonalLoop=1;jettySize=auto;html=1;exitX=1;exitY=0.5;exitDx=0;exitDy=0;exitPerimeter=0;entryX=0;entryY=0.75;entryDx=0;entryDy=0;curved=1;" parent="1" source="K_3RQfGE3v5Q4Vc9bMYA-29" target="K_3RQfGE3v5Q4Vc9bMYA-27" edge="1">
          <mxGeometry relative="1" as="geometry">
            <mxPoint x="200" y="250" as="sourcePoint" />
            <mxPoint x="290" y="228" as="targetPoint" />
          </mxGeometry>
        </mxCell>
        <mxCell id="K_3RQfGE3v5Q4Vc9bMYA-41" value="&lt;div align=&quot;left&quot;&gt;Staging / Dataset A&lt;/div&gt;" style="text;html=1;strokeColor=none;fillColor=none;align=left;verticalAlign=middle;whiteSpace=wrap;rounded=0;fontStyle=1;fontColor=#3333FF;" parent="1" vertex="1">
          <mxGeometry x="280" y="70" width="110" height="20" as="geometry" />
        </mxCell>
        <mxCell id="K_3RQfGE3v5Q4Vc9bMYA-43" value="&lt;div align=&quot;left&quot;&gt;Published / Dataset A&lt;/div&gt;" style="text;html=1;strokeColor=none;fillColor=none;align=left;verticalAlign=middle;whiteSpace=wrap;rounded=0;fontStyle=1;fontColor=#3333FF;" parent="1" vertex="1">
          <mxGeometry x="280" y="330" width="150" height="20" as="geometry" />
        </mxCell>
        <mxCell id="K_3RQfGE3v5Q4Vc9bMYA-45" value="CATALOG" style="text;html=1;strokeColor=none;fillColor=none;align=center;verticalAlign=middle;whiteSpace=wrap;rounded=0;fontStyle=1;fontSize=18;fontColor=#3333FF;" parent="1" vertex="1">
          <mxGeometry x="420" y="40" width="40" height="20" as="geometry" />
        </mxCell>
        <mxCell id="K_3RQfGE3v5Q4Vc9bMYA-46" value="Dataset A in Published Area" style="text;html=1;strokeColor=none;fillColor=none;align=center;verticalAlign=middle;whiteSpace=wrap;rounded=0;" parent="1" vertex="1">
          <mxGeometry x="50" y="440" width="150" height="20" as="geometry" />
        </mxCell>
        <mxCell id="K_3RQfGE3v5Q4Vc9bMYA-49" value="&lt;div&gt;select * from Staging.A where year=2020 &lt;br&gt;&lt;/div&gt;&lt;div&gt;and month=04 and day=14&lt;/div&gt;&lt;div&gt;and version=2&lt;br&gt;&lt;/div&gt;" style="html=1;whiteSpace=wrap;comic=1;strokeWidth=2;fontFamily=Comic Sans MS;fontStyle=1;dashed=1;strokeColor=#3333FF;" parent="1" vertex="1">
          <mxGeometry x="680" y="110" width="290" height="60" as="geometry" />
        </mxCell>
        <mxCell id="K_3RQfGE3v5Q4Vc9bMYA-50" value="" style="rounded=0;whiteSpace=wrap;html=1;dashed=1;strokeColor=#3333FF;strokeWidth=2;fillColor=none;" parent="1" vertex="1">
          <mxGeometry x="280" y="150" width="320" height="30" as="geometry" />
        </mxCell>
        <mxCell id="K_3RQfGE3v5Q4Vc9bMYA-51" value="" style="endArrow=classic;html=1;strokeColor=#3333FF;exitX=1;exitY=0.5;exitDx=0;exitDy=0;entryX=0;entryY=0.5;entryDx=0;entryDy=0;" parent="1" source="K_3RQfGE3v5Q4Vc9bMYA-50" target="K_3RQfGE3v5Q4Vc9bMYA-49" edge="1">
          <mxGeometry width="50" height="50" relative="1" as="geometry">
            <mxPoint x="10" y="560" as="sourcePoint" />
            <mxPoint x="60" y="510" as="targetPoint" />
          </mxGeometry>
        </mxCell>
        <mxCell id="K_3RQfGE3v5Q4Vc9bMYA-52" value="&lt;div&gt;select * from Published.A where year=2020 &lt;br&gt;&lt;/div&gt;&lt;div&gt;and month=04 and day=14&lt;/div&gt;" style="html=1;whiteSpace=wrap;comic=1;strokeWidth=2;fontFamily=Comic Sans MS;fontStyle=1;dashed=1;strokeColor=#3333FF;" parent="1" vertex="1">
          <mxGeometry x="670" y="330" width="250" height="60" as="geometry" />
        </mxCell>
        <mxCell id="K_3RQfGE3v5Q4Vc9bMYA-53" value="" style="endArrow=classic;html=1;strokeColor=#3333FF;entryX=0;entryY=0.5;entryDx=0;entryDy=0;exitX=1;exitY=0.75;exitDx=0;exitDy=0;" parent="1" source="K_3RQfGE3v5Q4Vc9bMYA-27" target="K_3RQfGE3v5Q4Vc9bMYA-52" edge="1">
          <mxGeometry width="50" height="50" relative="1" as="geometry">
            <mxPoint x="610" y="175" as="sourcePoint" />
            <mxPoint x="690" y="150" as="targetPoint" />
          </mxGeometry>
        </mxCell>
        <mxCell id="K_3RQfGE3v5Q4Vc9bMYA-54" value="" style="rounded=0;whiteSpace=wrap;html=1;dashed=1;strokeColor=#3333FF;strokeWidth=2;fillColor=none;" parent="1" vertex="1">
          <mxGeometry x="280" y="382.5" width="320" height="30" as="geometry" />
        </mxCell>
        <mxCell id="p2aXeiTRnyVYV414mePQ-1" value="1" style="ellipse;whiteSpace=wrap;html=1;aspect=fixed;strokeWidth=2;fillColor=#FFF2CC;strokeColor=#3333FF;" vertex="1" parent="1">
          <mxGeometry x="50" y="75" width="20" height="20" as="geometry" />
        </mxCell>
        <mxCell id="p2aXeiTRnyVYV414mePQ-5" value="2" style="ellipse;whiteSpace=wrap;html=1;aspect=fixed;strokeWidth=2;fillColor=#FFF2CC;strokeColor=#3333FF;" vertex="1" parent="1">
          <mxGeometry x="590" y="80" width="20" height="20" as="geometry" />
        </mxCell>
        <mxCell id="p2aXeiTRnyVYV414mePQ-6" value="3" style="ellipse;whiteSpace=wrap;html=1;aspect=fixed;strokeWidth=2;fillColor=#FFF2CC;strokeColor=#3333FF;" vertex="1" parent="1">
          <mxGeometry x="670" y="95" width="20" height="20" as="geometry" />
        </mxCell>
        <mxCell id="p2aXeiTRnyVYV414mePQ-7" value="4" style="ellipse;whiteSpace=wrap;html=1;aspect=fixed;strokeWidth=2;fillColor=#FFF2CC;strokeColor=#3333FF;" vertex="1" parent="1">
          <mxGeometry x="590" y="170" width="20" height="20" as="geometry" />
        </mxCell>
        <mxCell id="p2aXeiTRnyVYV414mePQ-9" value="5" style="ellipse;whiteSpace=wrap;html=1;aspect=fixed;strokeWidth=2;fillColor=#FFF2CC;strokeColor=#3333FF;" vertex="1" parent="1">
          <mxGeometry x="180" y="382.5" width="20" height="20" as="geometry" />
        </mxCell>
      </root>
    </mxGraphModel>
  </diagram>
</mxfile>
